# xmcd
# 
# Track frame offsets:
#     150
#     17053
#     35214
#     51199
#     68994
#     80339
#     97397
#     117868
#     126088
#     141103
# 
# Disc length: 2089
# 
# Revision: 2
# Processed by: cddbd v1.5.2PL0 Copyright (c) Steve Scherf et al.
# Submitted via: fre:ac v1.0.17
# 
DISCID=9008270a
DTITLE=Janis Joplin - Pearl (Mastersound SBM 1993)
DYEAR=1971
DGENRE=Rock
TTITLE0=Move Over
TTITLE1=Cry Baby
TTITLE2=A Woman Left Lonely
TTITLE3=Half Moon
TTITLE4=Buried Alive In The Blues
TTITLE5=My Baby
TTITLE6=Me And Bobby McGee
TTITLE7=Mercedes Benz
TTITLE8=Trust Me
TTITLE9=Get It While You Can
EXTD=YEAR: 1971
EXTT0=
EXTT1=
EXTT2=
EXTT3=
EXTT4=
EXTT5=
EXTT6=
EXTT7=
EXTT8=
EXTT9=
PLAYORDER=
